<svg xmlns="http://www.w3.org/2000/svg">
<symbol id="icon-htmlacademy">
    <path
      d="M13.6 0h-.1L0 1.4v24.7l13.5 8 13.4-8V1.4L13.6 0ZM25 12.1 13.5 5.3v-.1h-.1l-.1-.1v.1L1.9 12.1v-9l11.5-1.2L25 3.1v9ZM13.4 6.8l11.5 6.7-4.5 2.6-7.1-4.2v1.4l5.9 3.5-.9.5-5-3v1.4l3.8 2.3-.8.5-3-1.8v1.4l1.9 1.1-1.8 1.1L2 13.6l11.4-6.8ZM1.9 15.1l11.4 6.8v1l-7.9-4.7v1.4l8 4.8v1.1l-8-4.7v1.4l8 4.8 8.1-4.9v-5.2l3.4-2v10l-11.5 6.9L1.9 25v-9.9Z" />
  </symbol>

  <symbol id="icon-telegram">
    <path
      d="m22.44 4.622-3.17 14.944c-.239 1.055-.862 1.317-1.748.82l-4.828-3.558-2.33 2.242c-.258.258-.473.473-.97.473l.347-4.917 8.948-8.086c.39-.346-.084-.54-.604-.192L7.022 13.314 2.26 11.823c-1.036-.323-1.055-1.036.216-1.533l18.627-7.177c.863-.323 1.617.192 1.336 1.51Z" />
  </symbol>
</svg>
